<svg width="30" height="26" viewBox="0 0 30 26" fill="none" xmlns="http://www.w3.org/2000/svg">
<g clip-path="url(#clip0_1654_160)">
<path d="M29.5806 4.56486C29.3689 5.25943 29.1535 5.954 28.9529 6.65229C28.0057 9.95057 27.066 13.2489 26.1226 16.5471C25.9555 17.134 25.6917 17.3309 25.0826 17.3309C20.2392 17.3309 15.3957 17.3309 10.5523 17.3234C10.2292 17.3234 10.062 17.4051 9.9246 17.706C9.59403 18.4451 9.96546 19.0617 10.7789 19.0617C15.5257 19.0617 20.2726 19.0617 25.0195 19.0617C25.7103 19.0617 26.1152 19.3849 26.1115 19.9346C26.1115 20.4806 25.7066 20.7963 25.0083 20.7963C24.0872 20.7963 23.1623 20.7963 22.178 20.7963C23.7455 21.294 24.5663 22.438 24.3509 23.7454C24.128 25.09 23.0472 26.0149 21.7249 25.9926C20.4323 25.974 19.344 24.986 19.1917 23.6711C19.0692 22.6386 19.6189 21.2271 21.3757 20.8111H13.4903C14.9723 21.242 15.8192 22.3897 15.6372 23.6934C15.4515 25.0306 14.3706 25.9926 13.0557 25.9963C11.7409 25.9963 10.6563 25.0343 10.4669 23.7009C10.2849 22.3971 11.1169 21.2643 12.584 20.7963C11.9452 20.7963 11.3063 20.8 10.6675 20.7963C9.41203 20.7851 8.3906 19.9643 8.11574 18.7386C7.9746 18.1034 8.06003 17.4831 8.39431 16.926C8.62088 16.5471 8.6246 16.2091 8.50203 15.7894C7.17231 11.1911 5.86488 6.58543 4.55003 1.98343C4.52774 1.90914 4.50174 1.83857 4.46831 1.72343C4.37917 1.72343 4.27517 1.72343 4.17488 1.72343C3.10517 1.72343 2.03917 1.72343 0.969455 1.72343C0.390026 1.73457 -0.00368823 1.37429 2.60564e-05 0.858C0.00374034 0.356571 0.397455 0 0.962026 0C2.31774 0 3.67717 0 5.03288 0C5.56031 0 5.85003 0.222857 5.9986 0.735429C6.2586 1.638 6.51488 2.54429 6.7786 3.46914H7.16117C14.2555 3.46914 21.3535 3.47286 28.4477 3.46171C28.9789 3.46171 29.3577 3.61771 29.5843 4.10429V4.56486H29.5806ZM24.596 15.5926C25.5877 12.1234 26.572 8.67286 27.56 5.22229H7.28003C8.27174 8.69886 9.25974 12.1494 10.244 15.5926H24.5997H24.596ZM13.052 22.5346C12.584 22.5346 12.1903 22.9283 12.1903 23.3963C12.1903 23.8643 12.5766 24.2617 13.0446 24.2654C13.5237 24.2729 13.9286 23.868 13.9212 23.3889C13.9175 22.9209 13.52 22.5309 13.052 22.5346ZM21.788 24.2654C22.256 24.2617 22.646 23.8643 22.646 23.3963C22.646 22.9171 22.2337 22.5197 21.7583 22.5309C21.2903 22.542 20.9077 22.9469 20.9152 23.4111C20.9226 23.8791 21.3237 24.2654 21.788 24.2617V24.2654Z" fill="#8CC642"/>
</g>
<defs>
<clipPath id="clip0_1654_160">
<rect width="29.5806" height="26" fill="white"/>
</clipPath>
</defs>
</svg>
