<svg width="164" height="60" viewBox="0 0 164 60" fill="none" xmlns="http://www.w3.org/2000/svg">
<g clip-path="url(#clip0_1745_528)">
<path d="M0.0173206 28.3437C0.0173206 23.7941 0.0346412 19.2446 0 14.6951C0 13.9686 0.164546 13.7783 0.900671 13.7956C3.54206 13.8475 6.18345 13.8388 8.82484 13.7956C9.4657 13.7869 9.63025 13.9513 9.62159 14.5913C9.58695 17.5148 9.62159 20.4382 9.58695 23.3617C9.58695 24.0017 9.75149 24.1661 10.3837 24.1574C14.4281 24.1315 18.4724 24.1315 22.5168 24.1574C23.1576 24.1574 23.3222 23.9931 23.3135 23.3617C23.2789 20.4382 23.3135 17.5148 23.2789 14.5913C23.2789 13.9513 23.4434 13.7869 24.0843 13.7956C26.691 13.8302 29.2978 13.8302 31.9132 13.7956C32.554 13.7869 32.7099 13.9599 32.7099 14.5913C32.6926 23.7509 32.6926 32.9191 32.7099 42.0787C32.7099 42.7101 32.554 42.8831 31.9132 42.8744C29.3064 42.8398 26.6997 42.8398 24.0843 42.8744C23.4434 42.8831 23.2789 42.7101 23.2875 42.0787C23.3222 38.8958 23.2875 35.7128 23.3222 32.5299C23.3222 31.8899 23.1576 31.7255 22.5254 31.7342C18.4811 31.7601 14.4367 31.7601 10.3924 31.7342C9.75149 31.7342 9.58695 31.8985 9.59561 32.5299C9.63025 35.7128 9.59561 38.8958 9.63025 42.0787C9.63025 42.7188 9.4657 42.8831 8.8335 42.8744C6.15747 42.8398 3.4901 42.8398 0.814068 42.8744C0.173206 42.8831 0.0086603 42.7101 0.0173206 42.0787C0.0433015 37.4946 0.0346412 32.9191 0.0346412 28.335L0.0173206 28.3437Z" fill="#1D1D1B"/>
<path d="M124.873 29.7794C124.873 31.985 124.838 34.1992 124.881 36.4048C124.916 38.273 125.141 40.124 125.921 41.8625C126.276 42.6496 126.12 42.8571 125.237 42.8571C122.855 42.8571 120.473 42.8571 118.1 42.8571C116.654 42.8571 116.594 42.8139 116.273 41.3868C116.221 41.1705 116.273 40.8851 116.039 40.7986C115.779 40.7035 115.684 41.0062 115.528 41.1532C113.9 42.6582 111.986 43.3761 109.761 43.4539C107.31 43.5318 105.032 43.108 102.98 41.6895C99.9051 39.5704 98.7533 36.4567 99.3855 32.7548C99.68 31.0509 100.373 29.6065 101.525 28.4388C102.772 27.176 104.374 26.3803 106.106 25.8959C108.791 25.1521 111.536 25.031 114.307 25.1002C115.676 25.1348 115.71 25.1002 115.667 23.7336C115.624 22.1594 115.364 20.6458 113.614 20.0231C111.735 19.3484 109.198 19.9625 109.224 22.4881C109.224 22.886 109.076 22.9725 108.713 22.9638C105.907 22.9552 103.109 22.9638 100.304 22.9638C100.035 22.9638 99.706 22.9638 99.8359 22.5746C100.165 21.6232 100.052 20.5939 100.468 19.6339C101.299 17.7137 102.65 16.3558 104.426 15.3265C106.548 14.0897 108.825 13.5707 111.267 13.3631C113.536 13.1728 115.719 13.3718 117.858 14.0118C121.876 15.2141 124.31 17.9386 124.821 22.0816C125.098 24.3564 124.873 26.6917 124.873 28.9924C124.873 29.2518 124.873 29.5113 124.873 29.7708V29.7794ZM115.676 32.5732V32.1666C115.676 30.8462 115.003 30.186 113.658 30.186C112.48 30.186 111.319 30.1081 110.22 30.7482C108.531 31.7342 107.864 34.6317 109.31 36.0934C110.514 37.313 113.9 36.9497 115.277 35.1333C115.918 34.2944 115.58 33.3516 115.684 32.5645L115.676 32.5732Z" fill="#1D1D1B"/>
<path d="M141.371 42.8658C137.526 42.8658 133.672 42.8485 129.827 42.8831C129.168 42.8831 128.9 42.7706 128.961 42.0528C129.03 41.2484 129.038 40.4267 128.961 39.6223C128.839 38.3509 129.177 37.313 129.991 36.2837C133.152 32.2445 136.235 28.1447 139.344 24.0623C139.959 23.2579 140.574 22.4535 141.189 21.6491C141.301 21.5021 141.561 21.4156 141.475 21.1907C141.362 20.8966 141.076 21.0523 140.877 21.0523C137.456 21.0437 134.027 21.0177 130.606 21.0696C129.775 21.0783 129.506 20.9139 129.541 20.0317C129.619 18.1808 129.584 16.3298 129.558 14.4789C129.558 13.9859 129.671 13.8215 130.199 13.8215C137.733 13.8388 145.259 13.8388 152.794 13.8215C153.287 13.8215 153.469 13.9167 153.46 14.4529C153.417 15.7849 153.409 17.1169 153.46 18.4489C153.495 19.3398 152.811 19.8155 152.387 20.3863C149.174 24.7023 145.9 28.9751 142.644 33.2651C142.141 33.9224 141.622 34.5625 141.12 35.2198C140.99 35.3842 140.79 35.6436 140.842 35.7647C140.938 35.9896 141.232 35.8599 141.44 35.8599C145.19 35.8599 148.94 35.8945 152.69 35.8426C153.608 35.8253 153.911 36.0069 153.859 36.9756C153.764 38.6622 153.798 40.3575 153.85 42.0441C153.868 42.7101 153.72 42.909 153.01 42.909C149.13 42.8744 145.251 42.8917 141.371 42.8917V42.8658Z" fill="#1D1D1B"/>
<path d="M38.573 28.2399C38.573 23.725 38.5903 19.21 38.5557 14.6865C38.5557 13.9599 38.7202 13.7696 39.4563 13.7869C41.9678 13.8388 44.4793 13.8302 46.9908 13.7869C47.6317 13.7783 47.7875 13.9513 47.7875 14.5827C47.7702 23.7423 47.7702 32.9105 47.7875 42.0701C47.7875 42.7015 47.6317 42.8745 46.9908 42.8658C44.4447 42.8312 41.9072 42.8312 39.3611 42.8658C38.7202 42.8745 38.5557 42.7015 38.5643 42.0701C38.5903 37.46 38.5816 32.8413 38.5816 28.2312L38.573 28.2399Z" fill="#1D1D1B"/>
<path d="M53.4427 31.5612C53.4427 28.015 53.4427 24.4774 53.4427 20.9312C53.4427 20.715 53.3214 20.4382 53.5379 20.2998C53.8064 20.1355 53.919 20.4555 54.0749 20.5853C55.9282 22.0729 57.9633 23.2665 60.1197 24.2612C60.8299 24.5899 61.54 24.9359 62.2675 25.2213C62.6918 25.3856 62.8391 25.6278 62.8391 26.0862C62.8218 31.4833 62.8218 36.8718 62.8391 42.269C62.8391 42.7361 62.7178 42.8744 62.2415 42.8658C59.5049 42.8485 56.7595 42.8312 54.0229 42.8658C53.2954 42.8744 53.434 42.4679 53.434 42.0701C53.434 38.5585 53.434 35.0555 53.434 31.5439L53.4427 31.5612Z" fill="#1D1D1B"/>
<path d="M95.9041 31.5612C95.9041 35.0728 95.8868 38.5758 95.9214 42.0874C95.9214 42.7274 95.7655 42.8917 95.1247 42.8831C92.5179 42.8485 89.9112 42.8485 87.2958 42.8831C86.6549 42.8917 86.499 42.7188 86.499 42.0874C86.525 36.82 86.525 31.5612 86.499 26.2938C86.499 25.697 86.6636 25.3597 87.2265 25.1175C89.305 24.218 91.4094 23.353 93.2627 22.021C93.9296 21.5453 94.5964 21.0696 95.2632 20.5939C95.4365 20.4728 95.5317 20.1442 95.8002 20.3085C96.0167 20.4382 95.8954 20.7237 95.8954 20.9399C95.8954 24.4774 95.8954 28.0236 95.8954 31.5612H95.9041Z" fill="#1D1D1B"/>
<path d="M102.356 5.74312L102.538 5.4231H102.876C101.152 13.6659 96.7441 19.8155 88.9239 23.3357C86.2305 24.5466 83.5805 25.8527 80.9997 27.2885C78.2544 28.8107 76.1586 30.8693 75.1367 33.8965C74.9808 33.8273 74.9635 33.6716 74.9375 33.5332C75.1107 32.0629 75.6476 30.7049 76.2712 29.3902C78.2804 25.1521 81.502 22.0037 85.3732 19.4868C88.6727 17.3504 92.1975 15.5773 95.4104 13.3026C97.6621 11.7111 99.9051 10.0937 101.49 7.7757C101.906 7.1616 102.365 6.55615 102.356 5.76042V5.74312Z" fill="#629741"/>
<path d="M74.2275 33.8878C73.2229 30.8519 71.1184 28.8021 68.3731 27.2798C65.7577 25.8267 63.0816 24.512 60.3623 23.2838C52.568 19.7636 48.2119 13.6226 46.4885 5.44039L46.8176 5.41444H46.809C46.8003 5.60473 46.8263 5.76041 47.0428 5.81231L47.0255 5.79501C47.2333 7.53352 48.4544 8.70117 49.5803 9.79962C51.78 11.9619 54.3607 13.6658 56.9848 15.3006C60.397 17.4283 64.0603 19.1581 67.1347 21.8135C70.7374 24.9272 73.4307 28.6031 74.4266 33.3516L74.5479 33.5419L74.5998 33.9311L74.2361 33.8965L74.2275 33.8878Z" fill="#629741"/>
<path d="M74.4179 33.3343C73.422 28.5858 70.7286 24.9099 67.1259 21.7962C64.0515 19.1408 60.3882 17.411 56.9761 15.2833C54.352 13.6485 51.7712 11.9446 49.5715 9.78232C48.4457 8.68387 47.2246 7.51621 47.0167 5.77771C49.1298 8.70981 52.3688 9.76502 55.5644 10.8721C57.8681 11.6679 60.1717 12.4809 62.5187 13.1382C66.8921 14.3664 69.7413 17.2466 71.6379 21.1994C73.422 24.9012 74.2534 28.854 74.5824 32.9191L74.5565 33.3083C74.5132 33.317 74.4612 33.3343 74.4179 33.3343Z" fill="#8CC642"/>
<path d="M102.356 5.74312C102.356 6.53885 101.914 7.1443 101.49 7.7584C99.9051 10.0764 97.6621 11.6938 95.4104 13.2853C92.1975 15.56 88.6641 17.3245 85.3731 19.4695C81.4933 21.9865 78.2717 25.1434 76.2712 29.3729C75.6476 30.6963 75.1107 32.0456 74.9375 33.5159C74.8855 33.5159 74.8422 33.4986 74.7903 33.49L74.7643 32.9105C75.206 28.1966 76.1759 23.6298 78.6441 19.5041C80.4628 16.4596 83.0002 14.3405 86.4297 13.2593C89.7726 12.2041 93.1241 11.1749 96.3977 9.92937C98.7446 9.03849 100.866 7.84489 102.356 5.74312Z" fill="#8CC642"/>
<path d="M95.6097 0.553551C94.2587 5.46634 91.0024 8.61467 86.3691 10.4916C84.0222 11.443 81.6233 12.2387 79.311 13.268C77.3884 14.1243 75.743 15.266 74.9289 17.3158C74.8856 17.4196 74.773 18.077 74.5305 17.3764L74.5652 17.3331C74.8076 17.1256 74.7557 16.8228 74.825 16.5634C75.2493 15.8368 75.4658 15.0151 75.9335 14.3059C78.0899 11.0192 81.3289 9.15958 84.793 7.58541C87.6855 6.27072 90.604 4.97333 93.1675 3.06184C93.8603 2.54288 94.709 2.07582 94.8649 1.07251V1.08981C95.0901 1.08981 95.116 0.92547 95.1247 0.743835L95.3152 0.527603H95.3066L95.6183 0.544902L95.6097 0.553551Z" fill="#629741"/>
<path d="M74.5305 17.3764C73.5085 15.1449 71.6552 13.8648 69.4382 13.0085C67.4117 12.2301 65.3852 11.4343 63.3587 10.6472C58.8207 8.89145 55.4951 5.92475 53.9276 1.21089C53.8583 0.994661 53.8324 0.76978 53.7804 0.553548L54.0402 0.518951H54.0315L54.2134 0.743832C54.2307 0.916818 54.2394 1.09845 54.5079 1.03791L54.5252 1.05521C54.2914 1.51362 54.707 1.69525 54.9236 1.93743C56.0754 3.20887 57.5303 4.0565 59.0026 4.88683C61.5573 6.32261 64.3027 7.36052 66.8834 8.72711C70.2609 10.5175 73.1188 12.8269 74.5045 16.5547L74.5564 17.3331L74.5218 17.3764H74.5305Z" fill="#629741"/>
<path d="M74.5218 16.5634C73.1362 12.8355 70.2783 10.5175 66.9008 8.73576C64.32 7.36918 61.5747 6.33126 59.0199 4.89549C57.539 4.06516 56.0927 3.20888 54.9409 1.94608C54.7244 1.7039 54.3087 1.52227 54.5425 1.06386C56.3179 2.55153 58.5176 3.07049 60.674 3.65864C62.3368 4.1084 63.9995 4.55816 65.6796 4.93008C69.698 5.82096 72.2182 8.32925 73.6125 12.0917C74.1234 13.4669 74.4612 14.8767 74.6084 16.3385L74.5305 16.572L74.5218 16.5634Z" fill="#8CC642"/>
<path d="M94.8735 1.08116C94.7176 2.08448 93.8689 2.55154 93.1761 3.07049C90.604 4.97333 87.6941 6.27072 84.8016 7.59406C81.3374 9.16823 78.0985 11.0278 75.9421 14.3145C75.4744 15.0238 75.2579 15.8455 74.8336 16.572L74.7556 16.3385C75.0327 14.1675 75.587 12.0744 76.6522 10.1456C78.1158 7.50757 80.2895 5.79501 83.2427 5.05983C85.3905 4.52357 87.5296 3.96137 89.6686 3.39917C91.5306 2.91481 93.3319 2.28341 94.8821 1.08981L94.8735 1.08116Z" fill="#8CC642"/>
<path d="M74.7903 33.4986C74.8423 33.5073 74.8856 33.5159 74.9376 33.5246C74.9635 33.663 74.9722 33.8187 75.1368 33.8878C75.0588 34.2944 74.9376 34.6749 74.6864 35.0122C74.4439 34.6749 74.3313 34.2857 74.2361 33.8965L74.5998 33.9311L74.6691 34.0954C74.6691 34.0954 74.7384 34.0089 74.7384 33.9657C74.7644 33.8187 74.773 33.663 74.7903 33.5073V33.4986Z" fill="#8BB167"/>
<path d="M74.7903 33.4986C74.773 33.6543 74.7644 33.8014 74.7384 33.957C74.7384 34.0003 74.6864 34.0435 74.6691 34.0868L74.5998 33.9224L74.5479 33.5332L74.5652 33.3083L74.5911 32.9191C74.6518 32.9624 74.7124 32.9624 74.7644 32.9191L74.7903 33.4986Z" fill="#BEDB91"/>
<path d="M102.876 5.42309H102.538C102.607 5.12037 102.659 4.81764 102.954 4.65331H102.945C102.98 4.90413 103.031 5.17226 102.876 5.42309Z" fill="#8BB167"/>
<path d="M46.8089 5.4058L46.4798 5.43175C46.3586 5.20687 46.3153 4.97334 46.4538 4.73981C46.6617 4.91279 46.8002 5.12902 46.8089 5.4058Z" fill="#8BB167"/>
<path d="M74.7557 16.3298L74.8336 16.5634C74.7643 16.8228 74.8163 17.1256 74.5738 17.3331L74.5219 16.5547L74.5998 16.3212C74.6518 16.3385 74.7037 16.3385 74.7557 16.3212V16.3298Z" fill="#BEDB91"/>
<path d="M95.6096 0.553558L95.2979 0.52761C95.3585 0.320028 95.4278 0.0259525 95.6356 0.0605496C95.7915 0.0864974 95.7395 0.380573 95.6096 0.553558Z" fill="#8BB167"/>
<path d="M54.0576 0.527608L53.7978 0.562205C53.6159 0.397869 53.5813 0.207585 53.7372 0.00865173C53.9104 0.14704 54.0316 0.311376 54.0662 0.536257L54.0576 0.527608Z" fill="#8BB167"/>
<path d="M47.0341 5.79501C46.8176 5.75176 46.7916 5.58743 46.8002 5.40579C46.9734 5.48364 47.0254 5.62202 47.0341 5.79501Z" fill="#8CC642"/>
<path d="M95.1333 0.752487C95.1333 0.934122 95.0987 1.09846 94.8649 1.09846C94.8822 0.925473 94.9601 0.795734 95.1333 0.752487Z" fill="#8CC642"/>
<path d="M54.508 1.04656C54.2395 1.1071 54.2308 0.92547 54.2135 0.743835C54.3694 0.787082 54.456 0.899522 54.508 1.04656Z" fill="#8CC642"/>
<path d="M102.953 4.65332L102.996 4.58412L102.945 4.63602H102.953V4.65332Z" fill="#8BB167"/>
<path d="M95.3152 0.536255L95.1246 0.752487L95.3152 0.536255Z" fill="#8CC642"/>
<path d="M54.2308 0.752484L54.049 0.527603L54.2308 0.752484Z" fill="#8CC642"/>
<path d="M74.5565 33.2997L74.5392 33.5246L74.418 33.3343C74.4613 33.3343 74.5132 33.317 74.5565 33.3083V33.2997Z" fill="#8BB167"/>
<path d="M159.956 13.8042C157.721 13.8042 155.911 15.6206 155.911 17.8434C155.911 20.0663 157.73 21.8826 159.956 21.8826C162.181 21.8826 164 20.0663 164 17.8434C164 15.6206 162.181 13.8042 159.956 13.8042ZM163.506 17.8434C163.506 19.7982 161.913 21.3896 159.956 21.3896C157.998 21.3896 156.405 19.7982 156.405 17.8434C156.405 15.8887 157.998 14.2972 159.956 14.2972C161.913 14.2972 163.506 15.8887 163.506 17.8434Z" fill="#1D1D1B"/>
<path d="M161.341 17.5753C161.497 17.3591 161.575 17.1169 161.575 16.8228C161.575 16.3731 161.437 16.0271 161.159 15.7936C160.882 15.56 160.484 15.4389 159.964 15.4389H158.44V20.0404H159.046V18.1808H160.129L161.125 20.0404H161.774V20.0058L160.692 18.051C160.969 17.9472 161.185 17.7829 161.341 17.5753ZM159.973 17.6878H159.038V15.9406H159.964C160.285 15.9406 160.527 16.0185 160.7 16.1741C160.874 16.3298 160.952 16.5461 160.952 16.8315C160.952 17.091 160.865 17.2985 160.683 17.4542C160.501 17.6099 160.267 17.6878 159.964 17.6878H159.973Z" fill="#1D1D1B"/>
<path d="M153.867 47.3721H0V48.1332H153.867V47.3721Z" fill="#8CC642"/>
<path d="M3.86249 59.2908C3.68929 59.5243 3.4468 59.6973 3.13503 59.8184C2.82326 59.9395 2.46818 60 2.07847 60C1.68876 60 1.3077 59.9049 0.995934 59.7146C0.684163 59.5243 0.441675 59.2562 0.268469 58.9102C0.0952632 58.5642 0.0086603 58.1491 0 57.682V57.2928C0 56.5489 0.173206 55.9608 0.528278 55.537C0.88335 55.1132 1.36833 54.9056 2.00053 54.9056C2.53747 54.9056 2.97048 55.044 3.29091 55.3121C3.61134 55.5889 3.80187 55.9781 3.86249 56.4884H3.0311C2.93584 55.8916 2.59809 55.5975 2.01785 55.5975C1.6368 55.5975 1.35101 55.7359 1.15182 56.0127C0.952632 56.2895 0.857369 56.696 0.848709 57.2322V57.6128C0.848709 58.1491 0.961293 58.5642 1.1778 58.8583C1.39431 59.1524 1.70608 59.2994 2.10445 59.2994C2.53747 59.2994 2.84058 59.1956 3.02244 58.9967V58.028H2.01785V57.3793H3.86249V59.2735V59.2908Z" fill="#1D1D1B"/>
<path d="M11.3883 58.028H10.4443V59.9308H9.60425V54.9834H11.3103C11.8732 54.9834 12.3063 55.1132 12.6094 55.364C12.9125 55.6148 13.0684 55.9954 13.0684 56.4798C13.0684 56.8084 12.9904 57.0852 12.8345 57.3101C12.6787 57.535 12.4621 57.708 12.1764 57.829L13.2676 59.8876V59.9308H12.3669L11.3969 58.028H11.3883ZM10.4443 57.336H11.3103C11.5961 57.336 11.8213 57.2668 11.9772 57.1198C12.1331 56.9728 12.2197 56.7738 12.2197 56.523C12.2197 56.2722 12.1417 56.0559 11.9945 55.9089C11.8473 55.7619 11.6221 55.6927 11.3363 55.684H10.4443V57.3447V57.336Z" fill="#1D1D1B"/>
<path d="M22.5601 57.5869C22.5601 58.0712 22.4735 58.495 22.3176 58.8669C22.1531 59.2302 21.9193 59.5156 21.6162 59.7059C21.313 59.9049 20.958 60 20.5596 60C20.1612 60 19.8148 59.9049 19.503 59.7059C19.1913 59.507 18.9574 59.2302 18.7929 58.8669C18.6284 58.5037 18.5417 58.0885 18.5417 57.6128V57.336C18.5417 56.8517 18.6284 56.4278 18.7929 56.0559C18.9574 55.684 19.1999 55.4072 19.503 55.2083C19.8062 55.0094 20.1612 54.9142 20.5596 54.9142C20.958 54.9142 21.3044 55.0094 21.6162 55.2083C21.9193 55.3986 22.1618 55.684 22.3263 56.0473C22.4908 56.4106 22.5774 56.8344 22.5774 57.3187V57.5955L22.5601 57.5869ZM21.7201 57.3274C21.7201 56.7825 21.6162 56.3587 21.417 56.0646C21.2178 55.7705 20.9233 55.6235 20.5509 55.6235C20.1785 55.6235 19.9014 55.7705 19.6936 56.0646C19.4857 56.3587 19.3818 56.7652 19.3818 57.3014V57.5869C19.3818 58.1318 19.4857 58.5469 19.6936 58.8496C19.9014 59.1437 20.1872 59.2908 20.5596 59.2908C20.932 59.2908 21.2178 59.1437 21.4256 58.8583C21.6335 58.5729 21.7287 58.1404 21.7287 57.5869V57.3274H21.7201Z" fill="#1D1D1B"/>
<path d="M31.7747 54.9834V58.2874C31.7747 58.8151 31.6101 59.2302 31.281 59.5329C30.9519 59.8357 30.5103 59.9914 29.9647 59.9914C29.4191 59.9914 28.9687 59.8443 28.6396 59.5416C28.3105 59.2389 28.146 58.8151 28.146 58.2788V54.9748H28.986V58.2874C28.986 58.6161 29.064 58.8669 29.2285 59.0486C29.3931 59.2302 29.6356 59.3081 29.956 59.3081C30.6055 59.3081 30.9259 58.9621 30.9259 58.2615V54.9748H31.766L31.7747 54.9834Z" fill="#1D1D1B"/>
<path d="M38.3391 58.0972V59.9308H37.499V54.9834H39.361C39.9066 54.9834 40.3309 55.1305 40.6514 55.4159C40.9718 55.7013 41.1277 56.0819 41.1277 56.5576C41.1277 57.0333 40.9718 57.4225 40.66 57.6906C40.3483 57.9588 39.9066 58.0972 39.3437 58.0972H38.3391ZM38.3391 57.4052H39.3523C39.6554 57.4052 39.8806 57.336 40.0365 57.189C40.1924 57.042 40.2703 56.8344 40.2703 56.5662C40.2703 56.2981 40.1924 56.0819 40.0278 55.9262C39.8719 55.7705 39.6468 55.684 39.3696 55.684H38.3304V57.4139L38.3391 57.4052Z" fill="#1D1D1B"/>
<path d="M56.8288 57.5869C56.8288 58.0712 56.7422 58.495 56.5863 58.8669C56.4218 59.2302 56.1879 59.5156 55.8848 59.7059C55.5817 59.9049 55.2266 60 54.8283 60C54.4299 60 54.0835 59.9049 53.7717 59.7059C53.4599 59.507 53.2261 59.2302 53.0616 58.8669C52.897 58.5037 52.8104 58.0885 52.8104 57.6128V57.336C52.8104 56.8517 52.897 56.4278 53.0616 56.0559C53.2261 55.684 53.4686 55.4072 53.7717 55.2083C54.0748 55.0094 54.4299 54.9142 54.8283 54.9142C55.2266 54.9142 55.5731 55.0094 55.8848 55.2083C56.1879 55.3986 56.4304 55.684 56.595 56.0473C56.7595 56.4106 56.8461 56.8344 56.8461 57.3187V57.5955L56.8288 57.5869ZM55.9888 57.3274C55.9888 56.7825 55.8848 56.3587 55.6856 56.0646C55.4865 55.7705 55.192 55.6235 54.8196 55.6235C54.4472 55.6235 54.1701 55.7705 53.9622 56.0646C53.7544 56.3587 53.6505 56.7652 53.6505 57.3014V57.5869C53.6505 58.1318 53.7544 58.5469 53.9622 58.8496C54.1701 59.1437 54.4559 59.2908 54.8283 59.2908C55.2007 59.2908 55.4865 59.1437 55.6943 58.8583C55.9021 58.5729 55.9974 58.1404 55.9974 57.5869V57.3274H55.9888Z" fill="#1D1D1B"/>
<path d="M65.2899 57.8377H63.3327V59.9395H62.4927V54.9921H65.5757V55.684H63.3327V57.1544H65.2899V57.8377Z" fill="#1D1D1B"/>
<path d="M81.043 58.322C80.9911 58.8497 80.8005 59.2648 80.4715 59.5589C80.1424 59.853 79.692 60 79.1378 60C78.7481 60 78.4103 59.9049 78.1158 59.7232C77.8214 59.5329 77.5962 59.2735 77.4317 58.9275C77.2671 58.5815 77.1892 58.1837 77.1805 57.7252V57.2668C77.1805 56.7998 77.2585 56.3846 77.423 56.03C77.5876 55.6754 77.8214 55.3986 78.1245 55.2083C78.4276 55.018 78.7827 54.9229 79.1811 54.9229C79.718 54.9229 80.151 55.0699 80.4715 55.364C80.7919 55.6581 80.9911 56.0819 81.043 56.6181H80.203C80.1597 56.2635 80.0644 56.004 79.8999 55.8484C79.7353 55.6927 79.4928 55.6148 79.1811 55.6148C78.8173 55.6148 78.5315 55.7532 78.3324 56.0213C78.1332 56.2895 78.0379 56.696 78.0292 57.2236V57.6647C78.0292 58.201 78.1245 58.6075 78.315 58.8929C78.5056 59.1783 78.774 59.3167 79.1378 59.3167C79.4669 59.3167 79.718 59.2389 79.8825 59.0918C80.0471 58.9448 80.151 58.6853 80.203 58.3307H81.043V58.322Z" fill="#1D1D1B"/>
<path d="M90.4914 57.5869C90.4914 58.0712 90.4048 58.495 90.2489 58.8669C90.0844 59.2302 89.8505 59.5156 89.5474 59.7059C89.2443 59.9049 88.8892 60 88.4909 60C88.0925 60 87.7461 59.9049 87.4343 59.7059C87.1225 59.507 86.8887 59.2302 86.7242 58.8669C86.5596 58.5037 86.473 58.0885 86.473 57.6128V57.336C86.473 56.8517 86.5596 56.4278 86.7242 56.0559C86.8887 55.684 87.1312 55.4072 87.4343 55.2083C87.7374 55.0094 88.0925 54.9142 88.4909 54.9142C88.8892 54.9142 89.2357 55.0094 89.5474 55.2083C89.8505 55.3986 90.093 55.684 90.2576 56.0473C90.4221 56.4106 90.5087 56.8344 90.5087 57.3187V57.5955L90.4914 57.5869ZM89.6513 57.3274C89.6513 56.7825 89.5474 56.3587 89.3482 56.0646C89.1491 55.7705 88.8546 55.6235 88.4822 55.6235C88.1098 55.6235 87.8327 55.7705 87.6248 56.0646C87.417 56.3587 87.3131 56.7652 87.3131 57.3014V57.5869C87.3131 58.1318 87.417 58.5469 87.6248 58.8496C87.8327 59.1437 88.1185 59.2908 88.4909 59.2908C88.8633 59.2908 89.1491 59.1437 89.3569 58.8583C89.5647 58.5729 89.66 58.1404 89.66 57.5869V57.3274H89.6513Z" fill="#1D1D1B"/>
<path d="M97.2465 54.9834L98.6494 58.7805L100.044 54.9834H101.135V59.9308H100.295V58.2961L100.382 56.1165L98.9439 59.9308H98.3377L96.9087 56.1165L96.9953 58.2961V59.9308H96.1553V54.9834H97.2465Z" fill="#1D1D1B"/>
<path d="M107.795 58.0972V59.9308H106.955V54.9834H108.817C109.362 54.9834 109.787 55.1305 110.107 55.4159C110.427 55.7013 110.583 56.0819 110.583 56.5576C110.583 57.0333 110.427 57.4225 110.116 57.6906C109.804 57.9588 109.362 58.0972 108.799 58.0972H107.795ZM107.795 57.4052H108.808C109.111 57.4052 109.336 57.336 109.492 57.189C109.648 57.042 109.726 56.8344 109.726 56.5662C109.726 56.2981 109.648 56.0819 109.483 55.9262C109.328 55.7705 109.102 55.684 108.825 55.684H107.786V57.4139L107.795 57.4052Z" fill="#1D1D1B"/>
<path d="M118.256 58.7805H116.377L115.987 59.9308H115.113L116.949 54.9834H117.702L119.538 59.9308H118.655L118.256 58.7805ZM116.611 58.0885H118.023L117.321 56.0386L116.62 58.0885H116.611Z" fill="#1D1D1B"/>
<path d="M128.753 59.9308H127.913L125.748 56.4192V59.9308H124.907V54.9834H125.748L127.921 58.5123V54.9834H128.761V59.9308H128.753Z" fill="#1D1D1B"/>
<path d="M135.464 59.9308H134.624V54.9834H135.464V59.9308Z" fill="#1D1D1B"/>
<path d="M144.151 57.7252H142.159V59.2475H144.488V59.9308H141.31V54.9834H144.462V55.6754H142.15V57.042H144.142V57.7252H144.151Z" fill="#1D1D1B"/>
<path d="M152.534 58.6594C152.534 58.4431 152.456 58.2701 152.309 58.1577C152.161 58.0453 151.884 57.9242 151.494 57.8031C151.105 57.682 150.793 57.5523 150.559 57.4052C150.118 57.1198 149.892 56.7565 149.892 56.2981C149.892 55.9002 150.048 55.5716 150.369 55.3121C150.689 55.0526 151.105 54.9229 151.616 54.9229C151.953 54.9229 152.257 54.9834 152.516 55.1132C152.776 55.2429 152.993 55.4245 153.14 55.6581C153.287 55.8916 153.365 56.1511 153.365 56.4365H152.525C152.525 56.177 152.447 55.9781 152.283 55.8311C152.127 55.684 151.893 55.6148 151.598 55.6148C151.321 55.6148 151.105 55.6754 150.958 55.7965C150.802 55.9176 150.732 56.0819 150.732 56.2981C150.732 56.4797 150.819 56.6268 150.984 56.7479C151.148 56.869 151.417 56.9901 151.798 57.1025C152.179 57.2149 152.482 57.3447 152.707 57.4917C152.932 57.6388 153.105 57.8031 153.209 57.9934C153.313 58.1837 153.365 58.3999 153.365 58.6594C153.365 59.0745 153.209 59.4032 152.897 59.6454C152.586 59.8876 152.17 60.0087 151.633 60.0087C151.278 60.0087 150.958 59.9395 150.663 59.8097C150.369 59.68 150.143 59.4897 149.979 59.2648C149.814 59.0313 149.736 58.7632 149.736 58.4518H150.576C150.576 58.7286 150.672 58.9534 150.854 59.1005C151.036 59.2562 151.295 59.334 151.642 59.334C151.936 59.334 152.153 59.2735 152.3 59.1524C152.447 59.0313 152.525 58.867 152.525 58.668L152.534 58.6594Z" fill="#1D1D1B"/>
</g>
<defs>
<clipPath id="clip0_1745_528">
<rect width="164" height="60" fill="white"/>
</clipPath>
</defs>
</svg>
