<svg width="22" height="26" viewBox="0 0 22 26" fill="none" xmlns="http://www.w3.org/2000/svg">
<g clip-path="url(#clip0_1745_589)">
<path d="M4.01252 26C3.57052 25.87 3.10252 25.792 2.68652 25.6026C1.5091 25.064 0.729095 24.1763 0.595381 22.854C0.539667 22.3154 0.632524 21.7583 0.68081 21.2123C0.840524 19.3663 1.00767 17.524 1.1711 15.678C1.33452 13.8691 1.49795 12.0566 1.65767 10.2477C1.78395 8.81771 1.91395 7.384 2.03281 5.95029C2.06252 5.616 2.11824 5.30029 2.45624 5.148C2.59738 5.08486 2.76452 5.06629 2.92052 5.06629C3.79338 5.05886 4.66252 5.06629 5.53538 5.06629C5.62824 5.06629 5.71738 5.06629 5.80652 5.06629C5.93281 1.82371 8.64795 0 10.9657 0C13.3577 0 16.0134 1.89057 16.1211 5.06257C16.2102 5.06257 16.3031 5.06257 16.3922 5.06257C17.2725 5.06257 18.1528 5.06257 19.0331 5.06257C19.5717 5.06257 19.8391 5.30771 19.8874 5.85C20.0805 8.03029 20.27 10.2143 20.4631 12.3946C20.6562 14.5749 20.8568 16.7551 21.05 18.9391C21.154 20.1091 21.2951 21.2791 21.3508 22.4529C21.4065 23.634 20.842 24.5477 19.9022 25.2311C19.3525 25.6323 18.7322 25.8663 18.0562 25.9554C18.008 25.9629 17.9634 25.9851 17.9151 26H4.01252ZM18.502 6.52229H16.0988C16.0988 6.61886 16.0988 6.69314 16.0988 6.76743C16.0988 7.41 16.1062 8.05257 16.0951 8.69514C16.0877 9.1 15.7682 9.39714 15.3745 9.39343C14.992 9.38972 14.6911 9.09257 14.6725 8.70257C14.6651 8.56886 14.6725 8.43143 14.6725 8.29771C14.6725 7.70714 14.6725 7.11657 14.6725 6.51857H7.26252C7.26252 7.19457 7.26252 7.85571 7.26252 8.51314C7.26252 9.06286 6.98767 9.39714 6.54195 9.39343C6.09252 9.39343 5.83252 9.06657 5.83252 8.502C5.83252 7.92629 5.83252 7.35057 5.83252 6.77486C5.83252 6.68571 5.83252 6.59657 5.83252 6.51486H3.42938C3.42195 6.57057 3.41081 6.61143 3.4071 6.65229C3.20652 8.92543 3.00224 11.2023 2.80167 13.4754C2.54167 16.4394 2.28167 19.4071 2.01795 22.3711C1.96967 22.9209 2.15538 23.3851 2.52681 23.7751C3.09138 24.3657 3.81195 24.5626 4.59938 24.5626C8.84852 24.5626 13.094 24.5626 17.3431 24.5626C17.8297 24.5626 18.3051 24.4883 18.7434 24.2617C19.4231 23.9051 19.8948 23.3814 19.9208 22.5866C19.9357 22.1149 19.8502 21.6431 19.8057 21.1714C19.6125 18.98 19.4231 16.7923 19.2262 14.6009C19.0257 12.35 18.8251 10.1029 18.6245 7.85571C18.5837 7.41 18.5428 6.968 18.4982 6.52229H18.502ZM7.26624 5.04771H14.6651C14.5871 3.73657 14.0337 2.704 12.9305 2.02057C11.6342 1.222 10.2934 1.222 8.9971 2.02057C7.89395 2.704 7.34052 3.73657 7.26252 5.04771H7.26624Z" fill="#80B321"/>
</g>
<defs>
<clipPath id="clip0_1745_589">
<rect width="20.7777" height="26" fill="white" transform="translate(0.580566)"/>
</clipPath>
</defs>
</svg>
