<svg width="27" height="26" viewBox="0 0 27 26" fill="none" xmlns="http://www.w3.org/2000/svg">
<g clip-path="url(#clip0_1745_593)">
<path d="M14.131 25.9999H12.6081C12.5338 25.9851 12.4595 25.9665 12.3852 25.9554C11.6758 25.8439 10.9552 25.7845 10.2607 25.6211C3.5861 24.0202 -0.715047 17.3159 0.592382 10.5671C1.13467 7.7628 2.44581 5.36709 4.55552 3.4468C7.56781 0.701944 11.1261 -0.390055 15.1598 0.122516C17.7301 0.449373 19.9921 1.50423 21.931 3.21652C24.2152 5.23337 25.6452 7.74794 26.1727 10.7602C26.2581 11.2505 26.3064 11.7445 26.3732 12.2348V13.7577C26.3584 13.8468 26.3398 13.9359 26.3287 14.0251C26.2655 14.4931 26.2321 14.9685 26.143 15.4328C25.649 18.0217 24.4715 20.2614 22.6181 22.1334C20.6755 24.0945 18.3392 25.3314 15.613 25.7994C15.1227 25.8848 14.6287 25.9331 14.1347 25.9999H14.131ZM22.0424 20.4657C25.6564 16.4617 26.1764 9.30052 21.1807 4.58709C16.419 0.0965161 8.69324 0.597944 4.5221 5.69023C0.332382 10.8085 1.72152 17.3048 4.71152 20.4545C5.08295 19.0319 5.75152 17.7728 6.7321 16.6882C7.71638 15.5999 8.90495 14.8014 10.2978 14.2739C7.27438 12.1011 7.34495 8.22337 9.29867 6.08394C11.3267 3.86652 14.7475 3.63994 16.9501 5.59737C18.1424 6.65966 18.8035 7.98937 18.8332 9.5828C18.8704 11.5365 18.0384 13.0854 16.4598 14.2554C19.3384 15.4217 21.1881 17.4831 22.0461 20.4619L22.0424 20.4657ZM13.5738 24.4734C13.8375 24.4511 14.3092 24.4288 14.781 24.3731C16.9612 24.1131 18.8964 23.2662 20.6012 21.8882C20.6607 21.8399 20.709 21.7174 20.6978 21.6394C20.1184 17.4942 16.2481 14.6565 12.1401 15.3585C8.95695 15.9008 6.52038 18.4079 6.04495 21.6282C6.03381 21.7137 6.0821 21.8399 6.14895 21.8957C8.25495 23.5894 10.6655 24.4362 13.5738 24.4734ZM13.3584 13.6759C15.5201 13.6908 17.2918 11.9377 17.3215 9.75737C17.3512 7.61052 15.5758 5.80909 13.4067 5.78309C11.2338 5.75709 9.45095 7.51394 9.41753 9.70537C9.3841 11.8634 11.167 13.6611 13.3584 13.6759Z" fill="#80B321"/>
</g>
<defs>
<clipPath id="clip0_1745_593">
<rect width="26.0149" height="26" fill="white" transform="translate(0.358398)"/>
</clipPath>
</defs>
</svg>
